<svg width="455" height="419" viewBox="0 0 455 419" fill="none" xmlns="http://www.w3.org/2000/svg">
<path fill-rule="evenodd" clip-rule="evenodd" d="M276.553 89.5107L454.933 0L388.842 192.817L375.97 229.327C365.004 203.888 339.701 186.08 310.24 186.08C270.727 186.08 238.695 218.111 238.695 257.624C238.695 297.137 270.727 329.168 310.24 329.168C312.752 329.168 315.234 329.039 317.68 328.786L227.466 419L137.487 329.02C139.021 329.119 140.568 329.168 142.126 329.168C181.639 329.168 213.671 297.137 213.671 257.624C213.671 218.111 181.639 186.08 142.126 186.08C114.101 186.08 89.8396 202.193 78.1012 225.661L66.732 192.817L0 0L179.663 89.5107L227.466 82.7734L276.553 89.5107Z" fill="#8700FB"/>
</svg>
